<svg preserveAspectRatio="none" overflow="visible" style="display: block;" width="16.1667" height="16" viewBox="0 0 16.1667 16" fill="none" xmlns="http://www.w3.org/2000/svg">
<g id="users">
<path id="Vector" d="M11.4167 14V12.6667C11.4167 11.9594 11.1357 11.2811 10.6356 10.781C10.1355 10.281 9.45724 10 8.75 10H3.41667C2.70942 10 2.03115 10.281 1.53105 10.781C1.03095 11.2811 0.75 11.9594 0.75 12.6667V14M15.4167 13.9999V12.6666C15.4162 12.0757 15.2196 11.5018 14.8576 11.0348C14.4956 10.5678 13.9888 10.2343 13.4167 10.0866M10.75 2.08659C11.3236 2.23346 11.832 2.56706 12.1951 3.0348C12.5582 3.50254 12.7552 4.07781 12.7552 4.66992C12.7552 5.26204 12.5582 5.83731 12.1951 6.30505C11.832 6.77279 11.3236 7.10639 10.75 7.25326M8.75 4.66667C8.75 6.13943 7.55609 7.33333 6.08333 7.33333C4.61057 7.33333 3.41667 6.13943 3.41667 4.66667C3.41667 3.19391 4.61057 2 6.08333 2C7.55609 2 8.75 3.19391 8.75 4.66667Z" stroke="#3E3E3E" stroke-width="1.5" stroke-linecap="round" stroke-linejoin="round"/>
</g>
</svg>
